# Blender v3.3.1 OBJ File: ''
# www.blender.org
mtllib healerTower.mtl
o Cube
v 0.500000 -0.030200 -0.500000
v 0.500000 -0.500000 -0.500000
v 0.500000 -0.030200 0.500000
v 0.500000 -0.500000 0.500000
v -0.500000 -0.030200 -0.500000
v -0.500000 -0.500000 -0.500000
v -0.500000 -0.030200 0.500000
v -0.500000 -0.500000 0.500000
v 0.321083 0.049396 -0.321083
v 0.321083 0.049396 0.321083
v -0.321083 0.049396 -0.321083
v -0.321083 0.049396 0.321083
v 0.000000 -0.500000 -0.500000
v 0.000000 -0.030200 0.500000
v 0.000000 -0.500000 0.500000
v 0.000000 -0.030200 -0.500000
v 0.000000 0.049396 0.321083
v 0.000000 0.049396 -0.321083
v -0.500000 -0.500000 0.000000
v 0.500000 -0.030200 0.000000
v -0.500000 -0.030200 0.000000
v 0.500000 -0.500000 0.000000
v 0.321083 0.049396 0.000000
v -0.321083 0.049396 0.000000
v 0.000000 -0.500000 0.000000
v -0.500000 -0.500000 0.250000
v 0.500000 -0.030200 0.250000
v 0.321083 0.049396 0.160542
v 0.000000 -0.500000 0.250000
v -0.500000 -0.030200 0.250000
v 0.500000 -0.500000 0.250000
v -0.321083 0.049396 0.160542
v -0.500000 -0.030200 -0.250000
v 0.500000 -0.500000 -0.250000
v -0.321083 0.049396 -0.160542
v -0.500000 -0.500000 -0.250000
v 0.500000 -0.030200 -0.250000
v 0.321083 0.049396 -0.160542
v 0.000000 -0.500000 -0.250000
v 0.250000 -0.500000 0.500000
v 0.250000 -0.030200 -0.500000
v 0.160542 0.049396 -0.321083
v 0.250000 -0.500000 -0.500000
v 0.250000 -0.030200 0.500000
v 0.160542 0.049396 0.321083
v 0.250000 -0.500000 0.000000
v 0.160542 0.049396 0.160542
v 0.250000 -0.500000 0.250000
v 0.250000 -0.500000 -0.250000
v 0.160542 0.049396 -0.160542
v -0.250000 -0.500000 -0.500000
v -0.250000 -0.030200 0.500000
v -0.160542 0.049396 0.321083
v -0.250000 -0.500000 0.500000
v -0.250000 -0.030200 -0.500000
v -0.160542 0.049396 -0.321083
v -0.250000 -0.500000 0.000000
v -0.250000 -0.500000 0.250000
v -0.160542 0.049396 0.160542
v -0.160542 0.049396 -0.160542
v -0.250000 -0.500000 -0.250000
v 0.079313 0.253090 0.241770
v -0.079313 0.253090 0.241770
v 0.000000 0.173777 0.321083
v -0.079313 0.253090 -0.241770
v 0.079313 0.253090 -0.241770
v 0.000000 0.173777 -0.321083
v 0.241770 0.253090 -0.079313
v 0.241770 0.253090 0.079313
v 0.321083 0.173777 0.000000
v -0.241770 0.253090 0.079313
v -0.241770 0.253090 -0.079313
v -0.321083 0.173777 0.000000
v 0.079313 0.253090 -0.079313
v -0.079313 0.253090 -0.079313
v -0.079313 0.253090 0.079313
v 0.079313 0.253090 0.079313
v 0.241770 0.253090 0.081228
v 0.321083 0.173777 0.160542
v 0.079313 0.253090 0.239855
v 0.079313 0.253090 0.081228
v -0.079313 0.253090 0.081228
v -0.079313 0.253090 0.239855
v -0.241770 0.253090 0.081228
v -0.321083 0.173777 0.160542
v -0.241770 0.253090 -0.081228
v -0.321083 0.173777 -0.160542
v 0.241770 0.253090 -0.081228
v 0.321083 0.173777 -0.160542
v 0.079313 0.253090 -0.081228
v 0.079313 0.253090 -0.239855
v -0.079313 0.253090 -0.239855
v -0.079313 0.253090 -0.081228
v 0.081228 0.253090 -0.241770
v 0.160542 0.173777 -0.321083
v 0.081228 0.253090 0.241770
v 0.160542 0.173777 0.321083
v 0.239855 0.253090 -0.079313
v 0.081228 0.253090 -0.079313
v 0.081228 0.253090 0.079313
v 0.239855 0.253090 0.079313
v 0.239855 0.253090 0.081228
v 0.081228 0.253090 0.081228
v 0.081228 0.253090 0.239855
v 0.160542 0.173777 0.160542
v 0.239855 0.253090 -0.081228
v 0.160542 0.173777 -0.160542
v 0.081228 0.253090 -0.239855
v 0.081228 0.253090 -0.081228
v -0.081228 0.253090 0.241770
v -0.160542 0.173777 0.321083
v -0.081228 0.253090 -0.241770
v -0.160542 0.173777 -0.321083
v -0.081228 0.253090 -0.079313
v -0.239855 0.253090 -0.079313
v -0.239855 0.253090 0.079313
v -0.081228 0.253090 0.079313
v -0.081228 0.253090 0.239855
v -0.081228 0.253090 0.081228
v -0.239855 0.253090 0.081228
v -0.160542 0.173777 0.160542
v -0.081228 0.253090 -0.081228
v -0.081228 0.253090 -0.239855
v -0.160542 0.173777 -0.160542
v -0.239855 0.253090 -0.081228
vt 0.625000 0.312500
vt 0.625000 0.250000
vt 0.625000 0.250000
vt 0.625000 0.312500
vt 0.375000 0.937500
vt 0.625000 0.937500
vt 0.625000 1.000000
vt 0.375000 1.000000
vt 0.375000 0.187500
vt 0.625000 0.187500
vt 0.375000 0.250000
vt 0.312500 0.687500
vt 0.375000 0.687500
vt 0.375000 0.750000
vt 0.312500 0.750000
vt 0.625000 0.687500
vt 0.625000 0.750000
vt 0.375000 0.437500
vt 0.625000 0.437500
vt 0.625000 0.500000
vt 0.375000 0.500000
vt 0.812500 0.687500
vt 0.875000 0.687500
vt 0.875000 0.750000
vt 0.812500 0.750000
vt 0.625000 0.812500
vt 0.625000 0.750000
vt 0.625000 0.812500
vt 0.625000 0.062500
vt 0.625000 0.000000
vt 0.625000 0.000000
vt 0.625000 0.062500
vt 0.625000 0.562500
vt 0.625000 0.500000
vt 0.625000 0.562500
vt 0.625000 0.875000
vt 0.625000 0.875000
vt 0.625000 0.937500
vt 0.655877 0.593377
vt 0.656623 0.593377
vt 0.656623 0.594123
vt 0.655877 0.594123
vt 0.375000 0.312500
vt 0.625000 0.375000
vt 0.375000 0.375000
vt 0.187500 0.687500
vt 0.250000 0.687500
vt 0.250000 0.750000
vt 0.187500 0.750000
vt 0.375000 0.812500
vt 0.375000 0.875000
vt 0.625000 0.375000
vt 0.625000 0.437500
vt 0.187500 0.562500
vt 0.250000 0.562500
vt 0.250000 0.625000
vt 0.187500 0.625000
vt 0.625000 0.625000
vt 0.625000 0.625000
vt 0.625000 0.687500
vt 0.625000 0.125000
vt 0.625000 0.125000
vt 0.625000 0.187500
vt 0.625000 0.562500
vt 0.625000 0.625000
vt 0.375000 0.562500
vt 0.375000 0.625000
vt 0.312500 0.562500
vt 0.312500 0.625000
vt 0.375000 0.062500
vt 0.375000 0.125000
vt 0.375000 0.000000
vt 0.812500 0.750000
vt 0.812500 0.687500
vt 0.687500 0.750000
vt 0.687500 0.687500
vt 0.687500 0.687500
vt 0.687500 0.750000
vt 0.312500 0.500000
vt 0.812500 0.500000
vt 0.875000 0.500000
vt 0.875000 0.562500
vt 0.812500 0.562500
vt 0.687500 0.562500
vt 0.687500 0.562500
vt 0.187500 0.500000
vt 0.250000 0.500000
vt 0.687500 0.500000
vt 0.780877 0.530877
vt 0.781623 0.530877
vt 0.781623 0.531623
vt 0.780877 0.531623
vt 0.625000 0.375000
vt 0.625000 0.437500
vt 0.125000 0.500000
vt 0.125000 0.562500
vt 0.875000 0.562500
vt 0.812500 0.562500
vt 0.687500 0.500000
vt 0.125000 0.625000
vt 0.125000 0.687500
vt 0.718377 0.718377
vt 0.719123 0.718377
vt 0.719123 0.719123
vt 0.718377 0.719123
vt 0.125000 0.750000
vt 0.625000 1.000000
vt 0.625000 0.312500
vt 0.780877 0.718377
vt 0.781623 0.718377
vt 0.781623 0.719123
vt 0.780877 0.719123
vt 0.625000 0.687500
vt 0.780877 0.593377
vt 0.781623 0.593377
vt 0.781623 0.594123
vt 0.780877 0.594123
vt 0.718377 0.593377
vt 0.719123 0.593377
vt 0.719123 0.594123
vt 0.718377 0.594123
vt 0.625000 0.125000
vt 0.625000 0.187500
vt 0.625000 0.062500
vt 0.655877 0.655877
vt 0.656623 0.655877
vt 0.656623 0.656623
vt 0.655877 0.656623
vt 0.718377 0.530877
vt 0.719123 0.530877
vt 0.719123 0.531623
vt 0.718377 0.531623
vt 0.718377 0.655877
vt 0.719123 0.655877
vt 0.719123 0.656623
vt 0.718377 0.656623
vt 0.780877 0.655877
vt 0.781623 0.655877
vt 0.781623 0.656623
vt 0.780877 0.656623
vt 0.625000 0.875000
vt 0.625000 0.937500
vt 0.812500 0.500000
vt 0.843377 0.593377
vt 0.844123 0.593377
vt 0.844123 0.594123
vt 0.843377 0.594123
vt 0.875000 0.687500
vt 0.843377 0.655877
vt 0.844123 0.655877
vt 0.844123 0.656623
vt 0.843377 0.656623
vt 0.750000 0.719123
vt 0.750000 0.750000
vt 0.750000 0.530877
vt 0.750000 0.500000
vt 0.844123 0.625000
vt 0.875000 0.625000
vt 0.625000 0.812500
vn 0.0000 0.9137 -0.4065
vn 0.0000 0.0000 1.0000
vn -1.0000 0.0000 0.0000
vn 0.0000 -1.0000 0.0000
vn 1.0000 0.0000 0.0000
vn 0.0000 0.0000 -1.0000
vn 0.0000 1.0000 0.0000
vn 0.0000 0.9137 0.4065
vn -0.4065 0.9137 0.0000
vn 0.4065 0.9137 0.0000
vn 0.0000 0.7071 0.7071
vn 0.0000 0.7071 -0.7071
vn 0.7071 0.7071 0.0000
vn -0.7071 0.7071 0.0000
vn 0.4082 0.8165 0.4082
vn 0.4082 0.8165 -0.4082
vn -0.4082 0.8165 0.4082
vn -0.4082 0.8165 -0.4082
usemtl Material
s off
f 55/1/1 5/2/1 11/3/1 56/4/1
f 54/5/2 52/6/2 7/7/2 8/8/2
f 36/9/3 33/10/3 5/2/3 6/11/3
f 48/12/4 31/13/4 4/14/4 40/15/4
f 31/13/5 27/16/5 3/17/5 4/14/5
f 43/18/6 41/19/6 1/20/6 2/21/6
f 59/22/7 32/23/7 12/24/7 53/25/7
f 44/26/8 3/17/8 10/27/8 45/28/8
f 30/29/9 7/30/9 12/31/9 32/32/9
f 37/33/10 1/20/10 9/34/10 38/35/10
f 52/6/8 14/36/8 17/37/8 53/38/8
f 88/39/7 106/40/7 98/41/7 68/42/7
f 51/43/6 55/1/6 16/44/6 13/45/6
f 58/46/4 29/47/4 15/48/4 54/49/4
f 40/50/2 44/26/2 14/36/2 15/51/2
f 41/19/1 16/44/1 18/52/1 42/53/1
f 61/54/4 39/55/4 25/56/4 57/57/4
f 27/16/10 20/58/10 23/59/10 28/60/10
f 33/10/9 21/61/9 24/62/9 35/63/9
f 23/59/5 38/35/5 89/64/5 70/65/5
f 34/66/5 37/33/5 20/58/5 22/67/5
f 49/68/4 34/66/4 22/67/4 46/69/4
f 26/70/3 30/29/3 21/61/3 19/71/3
f 8/72/3 7/30/3 30/29/3 26/70/3
f 3/17/10 27/16/10 28/60/10 10/27/10
f 57/57/4 25/56/4 29/47/4 58/46/4
f 59/22/3 53/25/3 111/73/3 121/74/3
f 21/61/9 30/29/9 32/32/9 24/62/9
f 45/75/5 47/76/5 105/77/5 97/78/5
f 22/67/5 20/58/5 27/16/5 31/13/5
f 46/69/4 22/67/4 31/13/4 48/12/4
f 43/79/4 2/21/4 34/66/4 49/68/4
f 2/21/5 1/20/5 37/33/5 34/66/5
f 56/80/7 11/81/7 35/82/7 60/83/7
f 5/2/9 33/10/9 35/63/9 11/3/9
f 38/35/6 50/84/6 107/85/6 89/64/6
f 51/86/4 13/87/4 39/55/4 61/54/4
f 20/58/10 37/33/10 38/35/10 23/59/10
f 19/71/3 21/61/3 33/10/3 36/9/3
f 9/34/7 42/88/7 50/84/7 38/35/7
f 13/87/4 43/79/4 49/68/4 39/55/4
f 25/56/4 46/69/4 48/12/4 29/47/4
f 65/89/7 112/90/7 123/91/7 92/92/7
f 39/55/4 49/68/4 46/69/4 25/56/4
f 42/53/6 18/52/6 67/93/6 95/94/6
f 1/20/1 41/19/1 42/53/1 9/34/1
f 4/14/2 3/17/2 44/26/2 40/50/2
f 28/60/7 47/76/7 45/75/7 10/27/7
f 14/36/8 44/26/8 45/28/8 17/37/8
f 13/45/6 16/44/6 41/19/6 43/18/6
f 29/47/4 48/12/4 40/15/4 15/48/4
f 6/95/4 51/86/4 61/54/4 36/96/4
f 60/83/6 35/82/6 87/97/6 124/98/6
f 50/84/5 42/88/5 95/99/5 107/85/5
f 19/100/4 57/57/4 58/46/4 26/101/4
f 104/102/7 80/103/7 62/104/7 96/105/7
f 36/96/4 61/54/4 57/57/4 19/100/4
f 26/101/4 58/46/4 54/49/4 8/106/4
f 6/11/6 5/2/6 55/1/6 51/43/6
f 7/7/8 52/6/8 53/38/8 12/107/8
f 18/52/6 56/4/6 113/108/6 67/93/6
f 15/51/2 14/36/2 52/6/2 54/5/2
f 16/44/1 55/1/1 56/4/1 18/52/1
f 83/109/7 118/110/7 110/111/7 63/112/7
f 47/76/2 28/60/2 79/113/2 105/77/2
f 93/114/7 122/115/7 114/116/7 75/117/7
f 109/118/7 90/119/7 74/120/7 99/121/7
f 35/63/3 24/62/3 73/122/3 87/123/3
f 28/60/5 23/59/5 70/65/5 79/113/5
f 24/62/3 32/32/3 85/124/3 73/122/3
f 69/125/7 101/126/7 102/127/7 78/128/7
f 94/129/7 66/130/7 91/131/7 108/132/7
f 100/133/7 77/134/7 81/135/7 103/136/7
f 76/137/7 117/138/7 119/139/7 82/140/7
f 53/38/2 17/37/2 64/141/2 111/142/2
f 56/80/3 60/83/3 124/98/3 113/143/3
f 125/144/7 86/145/7 72/146/7 115/147/7
f 32/23/2 59/22/2 121/74/2 85/148/2
f 116/149/7 71/150/7 84/151/7 120/152/7
f 62/153/11 63/112/11 64/154/11
f 65/89/12 66/155/12 67/156/12
f 68/42/13 69/125/13 70/65/13
f 71/150/14 72/157/14 73/158/14
f 74/120/7 75/117/7 76/137/7 77/134/7
f 80/103/7 81/135/7 82/140/7 83/109/7
f 90/119/7 91/131/7 92/92/7 93/114/7
f 98/41/7 99/121/7 100/133/7 101/126/7
f 102/127/15 103/136/15 104/102/15 105/77/15
f 106/40/16 107/85/16 108/132/16 109/118/16
f 114/116/7 115/147/7 116/149/7 117/138/7
f 118/110/17 119/139/17 120/152/17 121/74/17
f 122/115/18 123/91/18 124/98/18 125/144/18
f 96/105/11 62/104/11 64/154/11 97/78/11
f 112/90/12 65/89/12 67/156/12 113/143/12
f 83/109/7 63/112/7 62/104/7 80/103/7
f 88/39/13 68/42/13 70/65/13 89/64/13
f 84/151/14 71/150/14 73/158/14 85/148/14
f 93/114/7 75/117/7 74/120/7 90/119/7
f 101/126/7 69/125/7 68/42/7 98/41/7
f 117/138/7 76/137/7 75/117/7 114/116/7
f 69/125/13 78/128/13 79/113/13 70/65/13
f 76/137/7 82/140/7 81/135/7 77/134/7
f 105/77/11 79/113/11 78/128/11 102/127/11
f 118/110/7 83/109/7 82/140/7 119/139/7
f 72/146/14 86/145/14 87/97/14 73/158/14
f 65/89/7 92/92/7 91/131/7 66/130/7
f 122/115/7 93/114/7 92/92/7 123/91/7
f 106/40/12 88/39/12 89/64/12 107/85/12
f 66/130/12 94/129/12 95/99/12 67/156/12
f 77/134/7 100/133/7 99/121/7 74/120/7
f 80/103/7 104/102/7 103/136/7 81/135/7
f 90/119/7 109/118/7 108/132/7 91/131/7
f 94/129/13 108/132/13 107/85/13 95/99/13
f 100/133/7 103/136/7 102/127/7 101/126/7
f 109/118/7 99/121/7 98/41/7 106/40/7
f 104/102/13 96/105/13 97/78/13 105/77/13
f 63/112/11 110/111/11 111/73/11 64/154/11
f 71/150/7 116/149/7 115/147/7 72/146/7
f 85/148/11 121/74/11 120/152/11 84/151/11
f 86/145/12 125/144/12 124/98/12 87/97/12
f 113/143/14 124/98/14 123/91/14 112/90/14
f 116/149/7 120/152/7 119/139/7 117/138/7
f 125/144/7 115/147/7 114/116/7 122/115/7
f 121/74/14 111/73/14 110/111/14 118/110/14
f 17/37/2 45/28/2 97/159/2 64/141/2
