# Blender v3.3.1 OBJ File: ''
# www.blender.org
mtllib Idol.mtl
o Cube
v 0.500000 -0.267167 -0.500000
v 0.500000 -0.500000 -0.500000
v 0.500000 -0.267167 0.500000
v 0.500000 -0.500000 0.500000
v -0.500000 -0.267167 -0.500000
v -0.500000 -0.500000 -0.500000
v -0.500000 -0.267167 0.500000
v -0.500000 -0.500000 0.500000
v 0.250000 0.196449 -0.250000
v 0.250000 0.196449 0.250000
v -0.250000 0.196449 -0.250000
v -0.250000 0.196449 0.250000
v 0.250000 0.286081 -0.250000
v 0.012031 0.524051 -0.012031
v 0.250000 0.286081 0.250000
v 0.012031 0.524051 0.012031
v -0.012031 0.524051 -0.012031
v -0.250000 0.286081 -0.250000
v -0.012031 0.524051 0.012031
v -0.250000 0.286081 0.250000
vt 0.625000 1.000000
vt 0.625000 0.750000
vt 0.625000 0.750000
vt 0.625000 1.000000
vt 0.375000 0.750000
vt 0.375000 1.000000
vt 0.375000 0.000000
vt 0.625000 0.000000
vt 0.625000 0.250000
vt 0.375000 0.250000
vt 0.125000 0.500000
vt 0.375000 0.500000
vt 0.125000 0.750000
vt 0.625000 0.500000
vt 0.625000 0.000000
vt 0.625000 0.250000
vt 0.625000 0.500000
vt 0.625000 0.250000
vt 0.625000 0.500000
vt 0.625000 0.000000
vt 0.625000 0.750000
vt 0.625000 1.000000
vt 0.743985 0.618985
vt 0.756015 0.618985
vt 0.756015 0.631015
vt 0.743985 0.631015
vt 0.875000 0.750000
vt 0.875000 0.500000
vn 0.0000 0.4746 0.8802
vn 0.0000 0.0000 1.0000
vn -1.0000 0.0000 0.0000
vn 0.0000 -1.0000 0.0000
vn 1.0000 0.0000 0.0000
vn 0.0000 0.0000 -1.0000
vn -0.8802 0.4746 0.0000
vn 0.8802 0.4746 0.0000
vn 0.0000 0.4746 -0.8802
vn 0.0000 1.0000 0.0000
vn 0.0000 0.7071 0.7071
vn 0.7071 0.7071 0.0000
vn -0.7071 0.7071 0.0000
vn 0.0000 0.7071 -0.7071
usemtl Material
s off
f 7/1/1 3/2/1 10/3/1 12/4/1
f 4/5/2 3/2/2 7/1/2 8/6/2
f 8/7/3 7/8/3 5/9/3 6/10/3
f 6/11/4 2/12/4 4/5/4 8/13/4
f 2/12/5 1/14/5 3/2/5 4/5/5
f 6/10/6 5/9/6 1/14/6 2/12/6
f 5/9/7 7/8/7 12/15/7 11/16/7
f 3/2/8 1/14/8 9/17/8 10/3/8
f 1/14/9 5/9/9 11/16/9 9/17/9
f 9/17/6 11/16/6 18/18/6 13/19/6
f 11/16/3 12/15/3 20/20/3 18/18/3
f 12/4/2 10/3/2 15/21/2 20/22/2
f 14/23/10 17/24/10 19/25/10 16/26/10
f 16/26/11 19/25/11 20/27/11 15/21/11
f 14/23/12 16/26/12 15/21/12 13/19/12
f 19/25/13 17/24/13 18/28/13 20/27/13
f 17/24/14 14/23/14 13/19/14 18/28/14
f 10/3/5 9/17/5 13/19/5 15/21/5
